<?xml version="1.0" encoding="UTF-8"?> <svg xmlns="http://www.w3.org/2000/svg" width="306" height="52" viewBox="0 0 306 52" fill="none"><g clip-path="url(#clip0_9618_3968)"><path fill-rule="evenodd" clip-rule="evenodd" d="M5.04431 35.6912L14.6592 35.7235L14.7017 22.6102L23.7593 35.7669L35.6486 35.8094L24.3591 21.2224C27.4728 20.4234 29.9185 18.1881 30.9971 14.7649C31.3142 13.7908 31.4314 12.7807 31.4338 11.7581C31.4498 7.29862 29.6525 4.15776 26.679 2.16239C25.0642 1.0875 22.346 0.0798011 17.9076 0.0648672L5.17344 0.0214233L5.04431 35.6912ZM39.7366 11.6919L39.7563 25.1011C39.7601 26.9437 39.7438 28.8573 40.5848 30.5384C42.0889 33.5862 45.4303 36.2513 52.7042 36.276C57.9004 36.2937 60.8276 35.0722 62.5532 33.7638C65.178 31.7511 66.1632 30.1233 66.1621 25.357L66.1696 11.7007L57.021 11.6695L57.0196 23.4808C57.0097 26.5463 56.5034 27.1661 55.8166 27.7861C55.1761 28.395 54.2045 28.7776 53.0141 28.7738C51.2338 28.7677 50.0655 28.0261 49.4511 26.883C49.2805 26.5534 48.9223 25.6255 48.9098 23.3019L48.9013 11.6881L39.7366 11.6919ZM74.8837 35.6695L84.1727 35.7021L84.2287 18.9107L89.7508 18.9307L89.7743 11.7798L84.2736 11.7615L84.297 4.38584L75.008 4.35461L74.9829 11.7167L71.0145 11.7031L70.9896 18.8649L74.9594 18.8771L74.8837 35.6695ZM96.5483 35.7323L105.837 35.7646L105.893 18.9731L111.415 18.9932L111.439 11.8426L105.938 11.8239L105.962 4.44829L96.6723 4.4174L96.6475 11.7791L92.6791 11.7655L92.6543 18.9273L96.624 18.9395L96.5483 35.7323ZM14.5865 16.149L14.6127 7.95333L17.373 7.96317C20.3614 7.97335 21.9375 9.79834 21.9287 12.1345C21.9225 14.494 20.3913 16.17 17.3384 16.1588L14.5865 16.149ZM115.401 51.592L125.374 51.628L145.887 12.1871L136.284 12.1548L130.293 24.1562L124.173 12.1239L114.23 12.089L125.572 32.4774L115.401 51.592Z" fill="#005390"></path><path fill-rule="evenodd" clip-rule="evenodd" d="M88.2243 38.9635L80.7962 51.5476L91.7622 51.5849L99.1904 39.0008L88.2243 38.9635ZM0 51.0884V51.2618L77.8955 51.5299L84.9726 38.9468L5.82555 38.6726L0 51.0884ZM101.715 38.8732L94.2769 51.4583L101.16 51.4821L108.598 38.8966L101.715 38.8732ZM112.323 39.01L104.885 51.5917L109.453 51.6066L116.882 39.0252L112.323 39.01ZM156.202 35.8287H167.277V21.664H180.917V35.8287H191.953V1.05695H180.917V13.7531H167.277V1.05695H156.141L156.202 35.8287ZM212 35.8287H220.908L237.266 1.00367H225.098L216.291 21.4763L207.105 1.00367H194.937L212 35.8287ZM247.812 22.4208L252.583 9.91238L257.365 22.376L247.812 22.4208ZM231.29 35.8287H242.703L245.257 29.5304H260.144L262.801 35.8287H274.163L258.785 1.00367H246.177L231.29 35.8287ZM305.347 34.2691V24.7454C303.007 26.7768 299.809 27.9623 296.386 27.9623C289.867 27.9623 285.351 23.9885 285.351 18.3938C285.351 12.9416 289.969 8.87007 296.386 8.87007C299.696 8.87007 302.956 10.0553 305.347 12.1402V2.57172C302.25 1.24465 298.776 0.531555 295.191 0.531555C283.021 0.531555 274.212 8.35282 274.212 18.3938C274.212 24.0333 277.146 29.191 281.662 32.4167C285.136 34.8841 289.867 36.3005 294.801 36.3005C298.501 36.3005 301.975 35.6858 305.347 34.2691Z" fill="#B70017"></path><path fill-rule="evenodd" clip-rule="evenodd" d="M142.883 43.7864C142.654 43.5468 142.506 43.3058 142.438 43.0822C142.364 42.8585 142.362 42.6101 142.433 42.3355C142.515 42.0212 142.658 41.7724 142.862 41.5973C143.065 41.4232 143.312 41.3414 143.597 41.3414C143.894 41.3414 144.113 41.4408 144.241 41.6309C144.371 41.8223 144.397 42.0796 144.315 42.3939C144.234 42.7095 144.079 42.9739 143.856 43.1976C143.626 43.4212 143.305 43.6127 142.883 43.7864ZM138.687 51.9787H140.528C140.841 51.9206 141.149 51.8351 141.455 51.7214C142.069 51.4977 142.682 51.1485 143.293 50.6764L143.833 51.7289H147.166L145.675 48.8113C146.167 48.3379 146.625 47.8495 147.042 47.3353C147.457 46.8295 147.834 46.2902 148.177 45.735H145.618C145.445 45.9671 145.282 46.166 145.124 46.3398C144.967 46.5139 144.806 46.6717 144.647 46.8048L144.102 45.7187C144.747 45.346 145.264 44.9061 145.66 44.4004C146.056 43.8947 146.338 43.3147 146.511 42.6423C146.789 41.5725 146.709 40.7362 146.282 40.1137C145.848 39.4926 145.113 39.1858 144.076 39.1858C143.038 39.1858 142.151 39.4675 141.433 40.0231C140.713 40.5787 140.218 41.3661 139.956 42.3776C139.842 42.8161 139.807 43.2312 139.861 43.6127C139.908 43.9942 140.038 44.358 140.253 44.6988C139.417 45.1461 138.752 45.6691 138.261 46.2655C137.769 46.8631 137.417 47.5837 137.2 48.421C136.903 49.5655 136.962 50.4612 137.372 51.0986C137.656 51.5486 138.096 51.8419 138.687 51.9787ZM199.433 51.9787H201.287C201.587 51.9206 201.874 51.8351 202.148 51.7214C202.702 51.4977 203.222 51.1485 203.695 50.6764L203.574 51.7289H205.59L207.324 45.0388H203.046L202.37 47.6509H203.778C203.587 48.1067 203.296 48.4624 202.911 48.7282C202.516 49.0014 202.091 49.1344 201.635 49.1344C200.994 49.1344 200.588 48.8609 200.42 48.3131C200.25 47.7663 200.307 46.9378 200.592 45.8344C200.902 44.64 201.293 43.7457 201.76 43.1405C202.227 42.5354 202.767 42.236 203.395 42.236C203.786 42.236 204.084 42.3603 204.289 42.6175C204.486 42.8744 204.584 43.24 204.576 43.7281H207.545C207.771 42.2944 207.597 41.175 207.029 40.3873C206.452 39.5992 205.531 39.2017 204.261 39.2017C202.648 39.2017 201.246 39.7658 200.063 40.8855C198.878 42.0124 198.019 43.5964 197.49 45.6355C196.973 47.6333 196.97 49.2003 197.473 50.3448C197.86 51.2343 198.514 51.7771 199.433 51.9787ZM254.302 51.9787H256.327C257.471 51.7757 258.507 51.2276 259.438 50.3356C260.643 49.184 261.498 47.6173 262.011 45.6355C262.527 43.6463 262.484 42.0796 261.876 40.9263C261.269 39.7747 260.188 39.2017 258.627 39.2017C257.06 39.2017 255.683 39.7747 254.478 40.9263C253.274 42.0796 252.412 43.6463 251.895 45.6355C251.382 47.6173 251.433 49.184 252.039 50.3356C252.509 51.2276 253.261 51.7757 254.302 51.9787ZM298.175 51.9787H300.215C301.182 51.8079 302.053 51.3925 302.826 50.7347C303.87 49.8475 304.648 48.604 305.151 46.9948H302.188C301.975 47.6421 301.681 48.1393 301.306 48.4869C300.932 48.8361 300.497 49.0102 300.013 49.0102C299.386 49.0102 298.976 48.7282 298.801 48.1566C298.624 47.5837 298.677 46.7464 298.964 45.6355C299.258 44.4999 299.63 43.6537 300.086 43.091C300.534 42.5354 301.063 42.2533 301.679 42.2533C302.181 42.2533 302.53 42.4098 302.726 42.7255C302.921 43.0486 302.956 43.522 302.842 44.1431H305.837C306.148 42.5602 306.016 41.3325 305.431 40.4789C304.839 39.6243 303.838 39.2017 302.429 39.2017C300.902 39.2017 299.543 39.7747 298.359 40.9263C297.175 42.0796 296.326 43.6463 295.81 45.6355C295.293 47.6333 295.336 49.2003 295.932 50.3448C296.391 51.2343 297.14 51.7771 298.175 51.9787ZM157.419 44.7643L158.012 42.477H159.354C159.903 42.477 160.252 42.5602 160.4 42.7255C160.547 42.8996 160.563 43.1976 160.451 43.6289C160.341 44.0525 160.173 44.342 159.938 44.5083C159.702 44.6825 159.336 44.7643 158.841 44.7643H157.419ZM152.527 51.7289H155.615L156.706 47.5179H158.035C158.524 47.5179 158.836 47.6421 158.968 47.8993C159.099 48.1566 159.082 48.604 158.919 49.2335L158.603 50.4527C158.571 50.5769 158.541 50.7422 158.519 50.9584C158.487 51.1821 158.46 51.4393 158.444 51.7289H161.598L161.716 51.2741C161.551 51.2479 161.523 50.9995 161.636 50.5111C161.634 50.4938 161.638 50.4775 161.641 50.4686L162.028 48.7692C162.22 47.9489 162.249 47.3264 162.115 46.9042C161.98 46.4817 161.656 46.1996 161.15 46.0577C161.761 45.7682 162.252 45.3782 162.637 44.8898C163.021 44.4004 163.307 43.7779 163.502 43.0326C163.826 41.7799 163.748 40.8855 163.267 40.3374C162.781 39.7906 161.814 39.5174 160.353 39.5174H155.692L152.527 51.7289ZM162.861 51.7289H170.834L171.603 48.7618H166.757L167.247 46.8706H171.181L171.907 44.0685H167.974L168.394 42.4434H173.048L173.807 39.5174H166.025L162.861 51.7289ZM172.295 51.7289H175.423L176.535 47.4347H179.907L180.672 44.4836H177.3L177.79 42.5927H182.029L182.825 39.5174H175.46L172.295 51.7289ZM185.742 44.7643L186.336 42.477H187.677C188.227 42.477 188.575 42.5602 188.724 42.7255C188.871 42.8996 188.886 43.1976 188.774 43.6289C188.665 44.0525 188.497 44.342 188.262 44.5083C188.025 44.6825 187.66 44.7643 187.164 44.7643H185.742ZM180.85 51.7289H183.938L185.03 47.5179H186.359C186.848 47.5179 187.159 47.6421 187.291 47.8993C187.423 48.1566 187.406 48.604 187.242 49.2335L186.926 50.4527C186.895 50.5769 186.865 50.7422 186.842 50.9584C186.811 51.1821 186.784 51.4393 186.768 51.7289H189.922L190.04 51.2741C189.874 51.2479 189.846 50.9995 189.96 50.5111C189.958 50.4938 189.961 50.4775 189.964 50.4686L190.352 48.7692C190.544 47.9489 190.573 47.3264 190.438 46.9042C190.303 46.4817 189.979 46.1996 189.474 46.0577C190.084 45.7682 190.576 45.3782 190.96 44.8898C191.345 44.4004 191.631 43.7779 191.825 43.0326C192.149 41.7799 192.071 40.8855 191.59 40.3374C191.105 39.7906 190.138 39.5174 188.676 39.5174H184.015L180.85 51.7289ZM191.237 51.7289H194.424L197.588 39.5174H194.401L191.237 51.7289ZM207.363 51.7289H215.336L216.105 48.7618H211.259L211.749 46.8706H215.683L216.409 44.0685H212.476L212.896 42.4434H217.551L218.309 39.5174H210.527L207.363 51.7289ZM221.688 44.7643L222.282 42.477H223.624C224.172 42.477 224.521 42.5602 224.67 42.7255C224.816 42.8996 224.832 43.1976 224.721 43.6289C224.611 44.0525 224.443 44.342 224.208 44.5083C223.971 44.6825 223.606 44.7643 223.11 44.7643H221.688ZM216.798 51.7289H219.885L220.976 47.5179H222.305C222.794 47.5179 223.105 47.6421 223.237 47.8993C223.369 48.1566 223.352 48.604 223.188 49.2335L222.873 50.4527C222.841 50.5769 222.811 50.7422 222.788 50.9584C222.757 51.1821 222.73 51.4393 222.714 51.7289H225.868L225.986 51.2741C225.82 51.2479 225.792 50.9995 225.906 50.5111C225.904 50.4938 225.908 50.4775 225.91 50.4686L226.298 48.7692C226.49 47.9489 226.519 47.3264 226.384 46.9042C226.249 46.4817 225.925 46.1996 225.42 46.0577C226.03 45.7682 226.522 45.3782 226.906 44.8898C227.291 44.4004 227.577 43.7779 227.771 43.0326C228.095 41.7799 228.017 40.8855 227.536 40.3374C227.051 39.7906 226.084 39.5174 224.622 39.5174H219.962L216.798 51.7289ZM231.274 47.5501L233.362 43.3221L233.238 47.5501H231.274ZM226.172 51.7289H229.246L230.041 50.1123H233.143L233.087 51.7289H236.189L235.928 39.5174H232.761L226.172 51.7289ZM238.648 51.7289H241.775L244.105 42.7343H246.909L247.743 39.5174H239.008L238.175 42.7343H240.978L238.648 51.7289ZM245.642 51.7289H248.83L251.994 39.5174H248.807L245.642 51.7289ZM255.049 45.6355C255.351 44.4751 255.723 43.6215 256.174 43.0822C256.624 42.5429 257.178 42.2696 257.833 42.2696C258.487 42.2696 258.894 42.5354 259.059 43.0733C259.223 43.6127 259.154 44.4663 258.851 45.6355C258.55 46.7959 258.179 47.6421 257.736 48.1814C257.292 48.7194 256.745 48.9939 256.09 48.9939C255.436 48.9939 255.024 48.7194 254.853 48.1814C254.682 47.6421 254.751 46.7885 255.049 45.6355ZM261.861 51.7289H264.829L266.312 46.0082C266.421 45.586 266.501 45.254 266.549 45.0144C266.597 44.7819 266.634 44.5582 266.657 44.342C266.655 44.732 266.671 45.0799 266.691 45.3871C266.711 45.6939 266.736 45.9264 266.779 46.0913L268.05 51.7289H271.031L274.196 39.5174H271.213L269.72 45.2788C269.624 45.6515 269.548 45.9671 269.495 46.2244C269.442 46.4817 269.4 46.7216 269.37 46.9378C269.372 46.5227 269.365 46.166 269.347 45.8765C269.324 45.586 269.298 45.3535 269.252 45.1956L267.994 39.5174H265.025L261.861 51.7289ZM277.337 51.7289H284.716L285.556 48.4869H281.305L283.63 39.5174H280.502L277.337 51.7289ZM285.993 51.7289H293.372L294.211 48.4869H289.96L292.285 39.5174H289.157L285.993 51.7289ZM142.248 48.6372C141.971 48.8609 141.695 49.035 141.421 49.1504C141.144 49.2746 140.891 49.3333 140.646 49.3333C140.348 49.3333 140.134 49.2424 140.01 49.0598C139.878 48.8772 139.857 48.6287 139.938 48.3131C140.018 48.0063 140.175 47.733 140.407 47.4754C140.639 47.2199 140.941 46.9948 141.315 46.8048L142.248 48.6372Z" fill="#B70017"></path></g><defs><clipPath id="clip0_9618_3968"><rect width="306" height="52" fill="white"></rect></clipPath></defs></svg> 